<mxfile host="app.diagrams.net" modified="2020-08-11T11:48:16.050Z" agent="5.0 (Windows NT 10.0; Win64; x64) AppleWebKit/537.36 (KHTML, like Gecko) Chrome/84.0.4147.105 Safari/537.36" etag="VFxJgVDdQEqVIZtJkA2I" version="13.6.2" type="github">
  <diagram id="C5RBs43oDa-KdzZeNtuy" name="Page-1">
    <mxGraphModel dx="2462" dy="2035" grid="1" gridSize="10" guides="1" tooltips="1" connect="1" arrows="1" fold="1" page="1" pageScale="1" pageWidth="827" pageHeight="1169" math="0" shadow="0">
      <root>
        <mxCell id="WIyWlLk6GJQsqaUBKTNV-0" />
        <mxCell id="WIyWlLk6GJQsqaUBKTNV-1" parent="WIyWlLk6GJQsqaUBKTNV-0" />
        <mxCell id="MRdKl2iqKXVFwiksK1Db-2" value="" style="edgeStyle=orthogonalEdgeStyle;rounded=0;orthogonalLoop=1;jettySize=auto;html=1;" parent="WIyWlLk6GJQsqaUBKTNV-1" source="MRdKl2iqKXVFwiksK1Db-0" target="MRdKl2iqKXVFwiksK1Db-1" edge="1">
          <mxGeometry relative="1" as="geometry" />
        </mxCell>
        <mxCell id="MRdKl2iqKXVFwiksK1Db-0" value="start" style="ellipse;whiteSpace=wrap;html=1;" parent="WIyWlLk6GJQsqaUBKTNV-1" vertex="1">
          <mxGeometry x="-60" y="-40" width="60" height="60" as="geometry" />
        </mxCell>
        <mxCell id="MRdKl2iqKXVFwiksK1Db-4" value="" style="edgeStyle=orthogonalEdgeStyle;rounded=0;orthogonalLoop=1;jettySize=auto;html=1;" parent="WIyWlLk6GJQsqaUBKTNV-1" source="MRdKl2iqKXVFwiksK1Db-1" target="MRdKl2iqKXVFwiksK1Db-3" edge="1">
          <mxGeometry relative="1" as="geometry" />
        </mxCell>
        <mxCell id="MRdKl2iqKXVFwiksK1Db-1" value="input n" style="shape=parallelogram;perimeter=parallelogramPerimeter;whiteSpace=wrap;html=1;fixedSize=1;" parent="WIyWlLk6GJQsqaUBKTNV-1" vertex="1">
          <mxGeometry x="-90" y="100" width="120" height="50" as="geometry" />
        </mxCell>
        <mxCell id="MRdKl2iqKXVFwiksK1Db-3" value="int rootn = 0" style="whiteSpace=wrap;html=1;" parent="WIyWlLk6GJQsqaUBKTNV-1" vertex="1">
          <mxGeometry x="-90" y="205" width="120" height="60" as="geometry" />
        </mxCell>
        <mxCell id="MRdKl2iqKXVFwiksK1Db-5" value="rootn &amp;lt; 10" style="rhombus;whiteSpace=wrap;html=1;" parent="WIyWlLk6GJQsqaUBKTNV-1" vertex="1">
          <mxGeometry x="-20" y="330" width="150" height="130" as="geometry" />
        </mxCell>
        <mxCell id="MRdKl2iqKXVFwiksK1Db-7" value="output n" style="shape=parallelogram;perimeter=parallelogramPerimeter;whiteSpace=wrap;html=1;fixedSize=1;" parent="WIyWlLk6GJQsqaUBKTNV-1" vertex="1">
          <mxGeometry x="-5" y="570" width="120" height="60" as="geometry" />
        </mxCell>
        <mxCell id="MRdKl2iqKXVFwiksK1Db-9" value="" style="endArrow=classic;html=1;exitX=0.5;exitY=1;exitDx=0;exitDy=0;entryX=0.5;entryY=0;entryDx=0;entryDy=0;" parent="WIyWlLk6GJQsqaUBKTNV-1" source="MRdKl2iqKXVFwiksK1Db-5" target="MRdKl2iqKXVFwiksK1Db-7" edge="1">
          <mxGeometry relative="1" as="geometry">
            <mxPoint x="360" y="440" as="sourcePoint" />
            <mxPoint x="460" y="440" as="targetPoint" />
          </mxGeometry>
        </mxCell>
        <mxCell id="MRdKl2iqKXVFwiksK1Db-10" value="yes" style="edgeLabel;resizable=0;html=1;align=center;verticalAlign=middle;" parent="MRdKl2iqKXVFwiksK1Db-9" connectable="0" vertex="1">
          <mxGeometry relative="1" as="geometry" />
        </mxCell>
        <mxCell id="MRdKl2iqKXVFwiksK1Db-15" value="n &amp;gt; 1" style="rhombus;whiteSpace=wrap;html=1;" parent="WIyWlLk6GJQsqaUBKTNV-1" vertex="1">
          <mxGeometry x="230" y="165" width="158" height="140" as="geometry" />
        </mxCell>
        <mxCell id="MRdKl2iqKXVFwiksK1Db-16" value="rootn = n % 10 + rootn&lt;br&gt;n = n / 10" style="whiteSpace=wrap;html=1;" parent="WIyWlLk6GJQsqaUBKTNV-1" vertex="1">
          <mxGeometry x="520" y="187.5" width="160" height="95" as="geometry" />
        </mxCell>
        <mxCell id="MRdKl2iqKXVFwiksK1Db-18" value="" style="endArrow=classic;html=1;entryX=0;entryY=0.5;entryDx=0;entryDy=0;exitX=1;exitY=0.5;exitDx=0;exitDy=0;" parent="WIyWlLk6GJQsqaUBKTNV-1" source="MRdKl2iqKXVFwiksK1Db-15" target="MRdKl2iqKXVFwiksK1Db-16" edge="1">
          <mxGeometry relative="1" as="geometry">
            <mxPoint x="478" y="385" as="sourcePoint" />
            <mxPoint x="578" y="385" as="targetPoint" />
          </mxGeometry>
        </mxCell>
        <mxCell id="MRdKl2iqKXVFwiksK1Db-19" value="yes" style="edgeLabel;resizable=0;html=1;align=center;verticalAlign=middle;" parent="MRdKl2iqKXVFwiksK1Db-18" connectable="0" vertex="1">
          <mxGeometry relative="1" as="geometry" />
        </mxCell>
        <mxCell id="MRdKl2iqKXVFwiksK1Db-26" value="" style="endArrow=classic;html=1;exitX=0;exitY=0.5;exitDx=0;exitDy=0;entryX=1;entryY=0.5;entryDx=0;entryDy=0;" parent="WIyWlLk6GJQsqaUBKTNV-1" source="MRdKl2iqKXVFwiksK1Db-5" target="MRdKl2iqKXVFwiksK1Db-28" edge="1">
          <mxGeometry relative="1" as="geometry">
            <mxPoint x="150" y="475" as="sourcePoint" />
            <mxPoint x="-70" y="475" as="targetPoint" />
          </mxGeometry>
        </mxCell>
        <mxCell id="MRdKl2iqKXVFwiksK1Db-27" value="no" style="edgeLabel;resizable=0;html=1;align=center;verticalAlign=middle;" parent="MRdKl2iqKXVFwiksK1Db-26" connectable="0" vertex="1">
          <mxGeometry relative="1" as="geometry" />
        </mxCell>
        <mxCell id="MRdKl2iqKXVFwiksK1Db-28" value="n = rootn" style="rounded=0;whiteSpace=wrap;html=1;" parent="WIyWlLk6GJQsqaUBKTNV-1" vertex="1">
          <mxGeometry x="-200" y="365" width="120" height="60" as="geometry" />
        </mxCell>
        <mxCell id="MRdKl2iqKXVFwiksK1Db-29" value="" style="endArrow=classic;html=1;exitX=0.5;exitY=0;exitDx=0;exitDy=0;entryX=0;entryY=0.5;entryDx=0;entryDy=0;" parent="WIyWlLk6GJQsqaUBKTNV-1" source="MRdKl2iqKXVFwiksK1Db-28" target="MRdKl2iqKXVFwiksK1Db-3" edge="1">
          <mxGeometry width="50" height="50" relative="1" as="geometry">
            <mxPoint x="130" y="370" as="sourcePoint" />
            <mxPoint x="-50" y="180" as="targetPoint" />
            <Array as="points">
              <mxPoint x="-140" y="235" />
            </Array>
          </mxGeometry>
        </mxCell>
        <mxCell id="MRdKl2iqKXVFwiksK1Db-30" value="" style="endArrow=classic;html=1;exitX=0.5;exitY=1;exitDx=0;exitDy=0;entryX=1;entryY=0.5;entryDx=0;entryDy=0;" parent="WIyWlLk6GJQsqaUBKTNV-1" source="MRdKl2iqKXVFwiksK1Db-15" target="MRdKl2iqKXVFwiksK1Db-5" edge="1">
          <mxGeometry relative="1" as="geometry">
            <mxPoint x="220" y="520" as="sourcePoint" />
            <mxPoint x="320" y="520" as="targetPoint" />
            <Array as="points">
              <mxPoint x="310" y="395" />
            </Array>
          </mxGeometry>
        </mxCell>
        <mxCell id="MRdKl2iqKXVFwiksK1Db-31" value="no" style="edgeLabel;resizable=0;html=1;align=center;verticalAlign=middle;" parent="MRdKl2iqKXVFwiksK1Db-30" connectable="0" vertex="1">
          <mxGeometry relative="1" as="geometry" />
        </mxCell>
        <mxCell id="MRdKl2iqKXVFwiksK1Db-32" value="" style="endArrow=classic;html=1;exitX=1;exitY=0.5;exitDx=0;exitDy=0;entryX=0;entryY=0.5;entryDx=0;entryDy=0;" parent="WIyWlLk6GJQsqaUBKTNV-1" source="MRdKl2iqKXVFwiksK1Db-3" target="MRdKl2iqKXVFwiksK1Db-15" edge="1">
          <mxGeometry width="50" height="50" relative="1" as="geometry">
            <mxPoint x="130" y="370" as="sourcePoint" />
            <mxPoint x="180" y="320" as="targetPoint" />
          </mxGeometry>
        </mxCell>
        <mxCell id="MRdKl2iqKXVFwiksK1Db-36" value="" style="endArrow=classic;html=1;entryX=0.5;entryY=0;entryDx=0;entryDy=0;exitX=0.5;exitY=0;exitDx=0;exitDy=0;" parent="WIyWlLk6GJQsqaUBKTNV-1" source="MRdKl2iqKXVFwiksK1Db-16" target="MRdKl2iqKXVFwiksK1Db-15" edge="1">
          <mxGeometry width="50" height="50" relative="1" as="geometry">
            <mxPoint x="610" y="110" as="sourcePoint" />
            <mxPoint x="-80" y="227.5" as="targetPoint" />
            <Array as="points">
              <mxPoint x="600" y="110" />
              <mxPoint x="309" y="110" />
            </Array>
          </mxGeometry>
        </mxCell>
      </root>
    </mxGraphModel>
  </diagram>
</mxfile>
